<?xml version="1.0" encoding="UTF-8"?>
<svg id="Camada_2" data-name="Camada 2" xmlns="http://www.w3.org/2000/svg" viewBox="0 0 1380.52 279.82">
  <defs>
    <style>
      .cls-1, .cls-2 {
        fill: #f4ede4;
      }

      .cls-2 {
        font-family: Inter-SemiBold, Inter;
        font-size: 95.96px;
        font-variation-settings: 'opsz' 14, 'wght' 600;
        font-weight: 600;
      }
    </style>
  </defs>
  <g id="Camada_1-2" data-name="Camada 1">
    <g>
      <g>
        <g>
          <path class="cls-1" d="M82.82,125.37c-3.61-1.9-6.23-4.85-7.86-8.87-1.63-4.02-2.44-9.41-2.44-16.19v-56.49h-12.73v-11.92h22.22c1.17,0,2.08.16,2.71.47.63.32,1.13.84,1.49,1.56.36.72.54,1.63.54,2.71v64.48c0,3.61.34,6.46,1.02,8.53.68,2.08,1.92,3.66,3.73,4.74,1.81,1.08,4.34,1.63,7.59,1.63h11.38v12.19h-13.27c-5.96,0-10.75-.95-14.36-2.84Z"/>
          <path class="cls-1" d="M132.67,124.43c-4.61-2.98-8.15-7.13-10.63-12.46-2.49-5.33-3.73-11.51-3.73-18.56s1.24-13.07,3.73-18.36c2.48-5.28,6.01-9.37,10.57-12.26,4.56-2.89,10-4.33,16.32-4.33s11.26,1.33,15.65,4c4.38,2.67,7.77,6.64,10.16,11.92,2.39,5.28,3.59,11.63,3.59,19.03,0,1.54-.09,3.34-.27,5.42-.54,6.41-2.1,11.85-4.67,16.32-2.57,4.47-5.92,7.88-10.02,10.23-4.11,2.35-8.87,3.52-14.29,3.52-6.32,0-11.79-1.49-16.39-4.47ZM166.53,110.88c3.52-4.15,5.28-9.98,5.28-17.48s-1.78-13.14-5.35-17.2c-3.57-4.06-8.38-6.1-14.43-6.1s-10.7,2.03-14.22,6.1c-3.52,4.06-5.28,9.8-5.28,17.2,0,4.97.81,9.24,2.44,12.8,1.63,3.57,3.88,6.28,6.77,8.13,2.89,1.85,6.32,2.78,10.3,2.78,6.14,0,10.97-2.08,14.49-6.23ZM171.82,112.23v-37.39l2.3-15.44h11.65v53.64l2.03,14.77h-12.87l-3.12-15.58Z"/>
        </g>
        <rect class="cls-1" x="240.83" width="11.29" height="279.82"/>
        <rect class="cls-1" width="11.29" height="279.82"/>
        <g>
          <path class="cls-1" d="M59.8,228.64h10.02v-40.5l-.54-4.47h-8.67l-.81-11.38h20.86l2.44,12.06c1.81-4.33,4.33-7.54,7.59-9.62,3.25-2.08,7.5-3.12,12.73-3.12h7.45v14.49h-8.4c-5.15,0-9.03.63-11.65,1.9-2.62,1.27-4.45,3.43-5.49,6.5-1.04,3.07-1.56,7.59-1.56,13.55v20.59h15.85v12.06h-39.83v-12.06Z"/>
          <path class="cls-1" d="M134.72,237.31c-4.61-2.98-8.15-7.13-10.63-12.46-2.49-5.33-3.73-11.51-3.73-18.56s1.24-13.07,3.73-18.36c2.48-5.28,6.01-9.37,10.57-12.26,4.56-2.89,10-4.33,16.32-4.33s11.26,1.33,15.65,4c4.38,2.67,7.77,6.64,10.16,11.92,2.39,5.28,3.59,11.63,3.59,19.03,0,1.54-.09,3.34-.27,5.42-.54,6.41-2.1,11.85-4.67,16.32-2.57,4.47-5.92,7.88-10.02,10.23-4.11,2.35-8.87,3.52-14.29,3.52-6.32,0-11.79-1.49-16.39-4.47ZM168.58,223.77c3.52-4.15,5.28-9.98,5.28-17.48s-1.78-13.14-5.35-17.2c-3.57-4.06-8.38-6.1-14.43-6.1s-10.7,2.03-14.22,6.1c-3.52,4.06-5.28,9.8-5.28,17.2,0,4.97.81,9.24,2.44,12.8,1.63,3.57,3.88,6.28,6.77,8.13,2.89,1.85,6.32,2.78,10.3,2.78,6.14,0,10.97-2.08,14.49-6.23ZM173.86,225.12v-37.39l2.3-15.44h11.65v53.64l2.03,14.77h-12.87l-3.12-15.58Z"/>
        </g>
      </g>
      <text class="cls-2" transform="translate(322.43 123.38)"><tspan x="0" y="0">Design que comunica, </tspan><tspan x="0" y="115.15">cativa &amp; transforma.</tspan></text>
    </g>
  </g>
</svg>