<?xml version="1.0" encoding="UTF-8"?>
<svg id="Camada_2" data-name="Camada 2" xmlns="http://www.w3.org/2000/svg" viewBox="0 0 894.38 591.83">
  <defs>
    <style>
      .cls-1 {
        fill: #fff;
        stroke-width: 0px;
      }
    </style>
  </defs>
  <g id="Camada_1-2" data-name="Camada 1">
    <g>
      <path class="cls-1" d="m59.03,192.88V52.76H0V0h126.72v195.26c0,22.81,15.75,29.12,29.53,29.12,8.25,0,16.92-1.59,28.32-5.51l14.58,49.59c-21.26,6.31-35.43,10.23-61.01,10.23-52.34,0-79.12-34.63-79.12-85.81Z"/>
      <path class="cls-1" d="m237.78,218.07c0-44.07,34.63-66.92,124.36-71.64-2.36-14.16-15.75-20.47-37.79-20.47-16.52,0-33.06,5.51-56.67,16.54l-23.62-44.07c29.91-16.54,60.62-25.98,93.68-25.98,55.89,0,92.09,27.57,92.09,92.11v109.41h-55.1l-4.72-20.47h-1.57c-19.3,14.16-42.51,25.19-66.92,25.19-40.94,0-63.75-28.32-63.75-60.62Zm124.36-6.31v-25.19c-48.02,1.59-59.82,12.62-59.82,25.98,0,9.07,7.08,14.16,21.26,14.16,15.73,0,27.93-7.06,38.56-14.96Z"/>
      <path class="cls-1" d="m489.73,77.16h55.5l5.12,41.73h1.57c18.9-32.29,47.23-46.45,76.76-46.45,18.09,0,26.36,3.13,37.39,7.85l-13.39,56.69c-11.8-3.55-20.07-5.51-34.23-5.51-22.43,0-46.45,11.82-61.01,44.87v97.63h-67.7V77.16Z"/>
      <path class="cls-1" d="m702.32,218.07c0-44.07,34.63-66.92,124.36-71.64-2.36-14.16-15.75-20.47-37.79-20.47-16.52,0-33.06,5.51-56.67,16.54l-23.62-44.07c29.91-16.54,60.62-25.98,93.68-25.98,55.89,0,92.09,27.57,92.09,92.11v109.41h-55.1l-4.72-20.47h-1.57c-19.3,14.16-42.51,25.19-66.92,25.19-40.94,0-63.75-28.32-63.75-60.62Zm124.36-6.31v-25.19c-48.02,1.59-59.82,12.62-59.82,25.98,0,9.07,7.08,14.16,21.26,14.16,15.73,0,27.93-7.06,38.56-14.96Z"/>
      <path class="cls-1" d="m25.08,390.31h50.38l4.72,23.6h1.57c6.31-14.96,18.9-28.32,41.73-28.32,16.13,0,28.72,11.03,33.06,31.5,5.51-16.54,20.07-31.5,42.51-31.5,28.34,0,44.07,25.19,44.07,64.54v136.98h-63.75v-132.26c0-8.27-1.59-11.78-6.7-11.78s-9.44,4.72-12.97,14.96v129.08h-51.17v-132.26c0-8.27-2.76-11.78-7.87-11.78-4.72,0-8.27,4.72-11.8,14.96v129.08H25.08v-196.8Z"/>
      <path class="cls-1" d="m266.79,488.73c0-64.58,50.38-103.14,103.12-103.14,62.2,0,93.68,42.53,93.68,95.25,0,11.82-1.96,23.6-2.76,28.32h-142.87v-44.07h96.04l-9.46,11.82c0-25.98-10.21-40.15-32.27-40.15-25.96,0-40.15,16.54-40.15,51.97s18.11,51.93,54.33,51.93c15.73,0,29.91-3.93,47.23-11.78l22.04,40.15c-23.6,14.96-54.31,22.81-78.72,22.81-62.18,0-110.2-37.76-110.2-103.1Z"/>
      <path class="cls-1" d="m548.76,506.02v-140.11h-59.03v-52.76h126.72v195.26c0,22.81,15.75,29.12,29.53,29.12,8.25,0,16.92-1.59,28.32-5.51l14.58,49.59c-21.26,6.31-35.43,10.23-61.01,10.23-52.34,0-79.12-34.63-79.12-85.81Z"/>
    </g>
  </g>
</svg>